<svg xmlns="http://www.w3.org/2000/svg" style="display:none">
  <symbol id="icon-user" viewBox="0 0 24 24" fill="none" stroke="currentColor" stroke-width="1.5">
    <circle cx="12" cy="8" r="4"/>
    <path d="M4 20c0-4 3.6-7 8-7s8 3 8 7"/>
  </symbol>
  <symbol id="icon-code" viewBox="0 0 24 24" fill="none" stroke="currentColor" stroke-width="1.5">
    <path d="M8 8L4 12l4 4M16 8l4 4-4 4"/>
  </symbol>
  <symbol id="icon-chart" viewBox="0 0 24 24" fill="none" stroke="currentColor" stroke-width="1.5">
    <rect x="4" y="12" width="4" height="8" rx="1"/>
    <rect x="10" y="8" width="4" height="12" rx="1"/>
    <rect x="16" y="4" width="4" height="16" rx="1"/>
  </symbol>
  <symbol id="icon-team" viewBox="0 0 24 24" fill="none" stroke="currentColor" stroke-width="1.5">
    <circle cx="9" cy="7" r="3"/>
    <circle cx="17" cy="9" r="2.5"/>
    <path d="M3 19c0-3 2.7-5 6-5M14 19c0-2.5 1.8-4 4-4"/>
  </symbol>
  <symbol id="icon-bolt" viewBox="0 0 24 24" fill="none" stroke="currentColor" stroke-width="1.5">
    <path d="M13 2L4 14h7l-1 8 9-12h-7l1-8z"/>
  </symbol>
  <symbol id="icon-target" viewBox="0 0 24 24" fill="none" stroke="currentColor" stroke-width="1.5">
    <circle cx="12" cy="12" r="8"/>
    <circle cx="12" cy="12" r="4"/>
    <circle cx="12" cy="12" r="1" fill="currentColor"/>
  </symbol>
  <symbol id="icon-folder" viewBox="0 0 24 24" fill="none" stroke="currentColor" stroke-width="1.5">
    <path d="M3 7a2 2 0 012-2h4l2 2h8a2 2 0 012 2v9a2 2 0 01-2 2H5a2 2 0 01-2-2V7z"/>
  </symbol>
  <symbol id="icon-users" viewBox="0 0 24 24" fill="none" stroke="currentColor" stroke-width="1.5">
    <circle cx="9" cy="8" r="3"/>
    <circle cx="17" cy="10" r="2.5"/>
    <path d="M3 20c0-3.5 2.7-6 6-6M14 20c0-2.5 2-4.5 4.5-4.5"/>
  </symbol>
  <symbol id="icon-award" viewBox="0 0 24 24" fill="none" stroke="currentColor" stroke-width="1.5">
    <circle cx="12" cy="9" r="5"/>
    <path d="M8 14l-2 7 6-3 6 3-2-7"/>
  </symbol>
  <symbol id="icon-check" viewBox="0 0 24 24" fill="none" stroke="currentColor" stroke-width="1.5">
    <circle cx="12" cy="12" r="9"/>
    <path d="M8 12l3 3 5-6"/>
  </symbol>
  <symbol id="icon-web" viewBox="0 0 24 24" fill="none" stroke="currentColor" stroke-width="1.5">
    <rect x="3" y="4" width="18" height="14" rx="2"/>
    <path d="M3 9h18M8 4v14"/>
  </symbol>
  <symbol id="icon-mobile" viewBox="0 0 24 24" fill="none" stroke="currentColor" stroke-width="1.5">
    <rect x="7" y="2" width="10" height="20" rx="2"/>
    <path d="M11 18h2"/>
  </symbol>
  <symbol id="icon-design" viewBox="0 0 24 24" fill="none" stroke="currentColor" stroke-width="1.5">
    <path d="M12 19l-7-7 7-7 7 7-7 7z"/>
    <path d="M5 12h14"/>
  </symbol>
  <symbol id="icon-cart" viewBox="0 0 24 24" fill="none" stroke="currentColor" stroke-width="1.5">
    <circle cx="9" cy="20" r="1"/>
    <circle cx="18" cy="20" r="1"/>
    <path d="M2 4h2l2.5 12H19l2-8H6"/>
  </symbol>
  <symbol id="icon-marketing" viewBox="0 0 24 24" fill="none" stroke="currentColor" stroke-width="1.5">
    <path d="M3 11v2a2 2 0 002 2h1l4 4V5L6 9H5a2 2 0 00-2 2z"/>
    <path d="M15 9a4 4 0 010 6"/>
    <path d="M17 7a7 7 0 010 10"/>
  </symbol>
  <symbol id="icon-linkedin" viewBox="0 0 24 24" fill="currentColor">
    <path d="M4.98 3.5a2 2 0 100 4 2 2 0 000-4zM3 8.5h4v12H3v-12zm7 0h3.8v1.7h.1c.5-.9 1.8-1.9 3.7-1.9 4 0 4.7 2.6 4.7 6v5.2h-4v-4.6c0-1.1 0-2.5-1.5-2.5s-1.7 1.2-1.7 2.4v4.7H10V8.5z"/>
  </symbol>
  <symbol id="icon-instagram" viewBox="0 0 24 24" fill="none" stroke="currentColor" stroke-width="1.5">
    <rect x="3" y="3" width="18" height="18" rx="5"/>
    <circle cx="12" cy="12" r="4"/>
    <circle cx="17.5" cy="6.5" r="1" fill="currentColor" stroke="none"/>
  </symbol>
  <symbol id="icon-whatsapp" viewBox="0 0 24 24" fill="currentColor">
    <path d="M12 2a10 10 0 00-8.7 15l-1.3 4.8 4.9-1.3A10 10 0 1012 2zm0 2a8 8 0 018 14.6l.3.2-.6 2.2-2.2-.6-.2.3A8 8 0 0112 4zm-3.5 4.5c-.2 0-.5.1-.7.4-.3.3-1 1-1 2.4 0 1.4 1 2.7 1.1 2.9.1.2 2 3.2 4.9 4.3 2.4 1 2.9.8 3.4.8.5 0 1.6-.6 1.8-1.2.2-.6.2-1.1.1-1.2-.1-.1-.2-.2-.5-.3l-1.9-.9c-.3-.1-.5-.2-.7.2l-.7 1c-.1.2-.3.2-.5.1-1-.5-1.9-1.2-2.6-2.1-.2-.2 0-.3.1-.5l.6-.7c.1-.1.1-.3 0-.4l-1.5-3.6c-.1-.3-.3-.4-.5-.4z"/>
  </symbol>
</svg>
